<svg id="Capa_1" data-name="Capa 1" xmlns="http://www.w3.org/2000/svg" xmlns:xlink="http://www.w3.org/1999/xlink" viewBox="0 0 134.47 30.49"><defs><style>.cls-1,.cls-3,.cls-4{fill:none;stroke-miterlimit:10;}.cls-1{stroke:#1d1d1b;stroke-width:0.5px;}.cls-2{fill:#1d1d1b;}.cls-3,.cls-4{stroke-width:2.4px;}.cls-3{stroke:url(#Degradado_sin_nombre_160);}.cls-4{stroke:url(#Degradado_sin_nombre_613);}</style><linearGradient id="Degradado_sin_nombre_160" x1="2.96" y1="16.4" x2="23.11" y2="16.4" gradientUnits="userSpaceOnUse"><stop offset="0" stop-color="#e4032c"/><stop offset="0.02" stop-color="#e4082a"/><stop offset="0.05" stop-color="#e61625"/><stop offset="0.08" stop-color="#e72d1c"/><stop offset="0.11" stop-color="#ea4d11"/><stop offset="0.13" stop-color="#ed6f04"/><stop offset="0.27" stop-color="#f7d400"/><stop offset="0.41" stop-color="#00a03b"/><stop offset="0.55" stop-color="#00b2e6"/><stop offset="0.71" stop-color="#3161ab"/><stop offset="0.72" stop-color="#415ba7"/><stop offset="0.75" stop-color="#6a4d9d"/><stop offset="0.78" stop-color="#8a4195"/><stop offset="0.81" stop-color="#a1398f"/><stop offset="0.84" stop-color="#af348b"/><stop offset="0.86" stop-color="#b4328a"/><stop offset="0.87" stop-color="#a23586"/><stop offset="0.9" stop-color="#8a3981"/><stop offset="0.93" stop-color="#793c7d"/><stop offset="0.96" stop-color="#6f3d7b"/><stop offset="1" stop-color="#6c3e7a"/></linearGradient><linearGradient id="Degradado_sin_nombre_613" x1="3.97" y1="14.56" x2="30.14" y2="14.56" gradientUnits="userSpaceOnUse"><stop offset="0" stop-color="#9e5ca1"/><stop offset="0.35" stop-color="#a3195b"/><stop offset="0.67" stop-color="#662483"/><stop offset="1" stop-color="#29235c"/></linearGradient></defs><path class="cls-1" d="M34.44,31.16V25.39h.32v5.69H38v.08Zm3.83-5.77,2.57,5.77H40.5L39.09,28,39,28l-.27.07-.26.08-.13.05a3.09,3.09,0,0,0-.57.31,3,3,0,0,0-.46.39,3.16,3.16,0,0,0-.37.45c-.1.16-.2.33-.29.5l-.17.44h-.12Zm-1.59,4.34a3.13,3.13,0,0,1,.25-.48,2.86,2.86,0,0,1,.35-.43,2.61,2.61,0,0,1,.44-.37,2.81,2.81,0,0,1,.54-.29l.13-.05.12,0,.21-.06.21-.05.13,0-.9-2Z" transform="translate(-3.97 -1.57)"/><path class="cls-1" d="M46.33,25.4h.32V31A1.59,1.59,0,0,1,47,30.9a2.6,2.6,0,0,1,.4,0,3.73,3.73,0,0,1,.94.12l.95.24,1,.25a4.82,4.82,0,0,0,1.1.12A3.65,3.65,0,0,0,53,31.3a3.48,3.48,0,0,0,1.17-.86,2.08,2.08,0,0,1-.48.59,3,3,0,0,1-.69.42,4.05,4.05,0,0,1-.81.27,4.28,4.28,0,0,1-.87.09,6.37,6.37,0,0,1-1-.08c-.32-.05-.64-.12-1-.2l-.54-.15-.54-.16a4.88,4.88,0,0,0-.55-.12,3.43,3.43,0,0,0-.56-.05,3.11,3.11,0,0,0-.43,0l-.42.08Zm2.72,0v3.27a1.61,1.61,0,0,0,.18.73,2.07,2.07,0,0,0,.5.61,2.52,2.52,0,0,0,.74.41,2.49,2.49,0,0,0,.91.16,2.73,2.73,0,0,0,.92-.15,2.23,2.23,0,0,0,.75-.39,2,2,0,0,0,.5-.59,1.55,1.55,0,0,0,.18-.73V25.4h.11v3.32a1.68,1.68,0,0,1-.2.79,2,2,0,0,1-.55.64,2.68,2.68,0,0,1-.82.44,2.86,2.86,0,0,1-1,.16,2.94,2.94,0,0,1-1-.16,2.68,2.68,0,0,1-.82-.44,2.11,2.11,0,0,1-.55-.64,1.68,1.68,0,0,1-.2-.79V25.4Z" transform="translate(-3.97 -1.57)"/><path class="cls-1" d="M56,31.08h4.87v.08H55.49l5.39-5.72h-5v-.09h5.42Z" transform="translate(-3.97 -1.57)"/><path class="cls-1" d="M66.85,25.35H69.9v.09H67.18v3H69v.08h-1.8v2.6H69.9v.07H66.85Z" transform="translate(-3.97 -1.57)"/><path class="cls-1" d="M71.18,30.93l.44-.26a3.21,3.21,0,0,0,1.57.39,2.86,2.86,0,0,0,.67-.08,1.85,1.85,0,0,0,.55-.25,1.22,1.22,0,0,0,.36-.39,1.08,1.08,0,0,0,.13-.54.89.89,0,0,0-.25-.66,2.13,2.13,0,0,0-.62-.46,7.59,7.59,0,0,0-.81-.36,5.68,5.68,0,0,1-.82-.4,2.67,2.67,0,0,1-.62-.53,1.23,1.23,0,0,1-.25-.8,1.07,1.07,0,0,1,.14-.55,1.18,1.18,0,0,1,.39-.38,1.84,1.84,0,0,1,.57-.23,3,3,0,0,1,.68-.08,2.84,2.84,0,0,1,.66.08,2.32,2.32,0,0,1,.59.22l-.11.3a1.3,1.3,0,0,0-.6-.4,2.06,2.06,0,0,0-.76-.13,2,2,0,0,0-.54.08,1.57,1.57,0,0,0-.45.22,1.27,1.27,0,0,0-.3.35.78.78,0,0,0-.11.42,1,1,0,0,0,.25.69,2.31,2.31,0,0,0,.62.45c.25.13.52.25.81.37a5,5,0,0,1,.81.38,2.32,2.32,0,0,1,.62.54,1.24,1.24,0,0,1,.25.81,1.2,1.2,0,0,1-.14.57,1.18,1.18,0,0,1-.38.45A1.65,1.65,0,0,1,74,31a2.37,2.37,0,0,1-.72.1,8.77,8.77,0,0,1-1-.05Q71.69,31,71.18,30.93Z" transform="translate(-3.97 -1.57)"/><path class="cls-1" d="M76,25.35h5.38v.09H78.8v5.72h-.32V25.44H76Z" transform="translate(-3.97 -1.57)"/><path class="cls-1" d="M81.32,31.16l2.29-5.81,2.59,5.81h-.35L84.43,28a5.7,5.7,0,0,0-.88.28,2.77,2.77,0,0,0-.67.4,2.61,2.61,0,0,0-.52.53,5.94,5.94,0,0,0-.41.67h0l-.5,1.29ZM82,29.72a3.09,3.09,0,0,1,.89-1.17,3.32,3.32,0,0,1,1.52-.64l-.9-2Zm1.77-5.34H84l-.41.71h-.06Z" transform="translate(-3.97 -1.57)"/><path class="cls-1" d="M95.39,31a3.8,3.8,0,0,0,1.23-.18,4.12,4.12,0,0,0,.86-.39,3.42,3.42,0,0,0,.68-.56,1.76,1.76,0,0,1-.27.33,3.19,3.19,0,0,1-.37.29,2.93,2.93,0,0,1-.56.3,3.68,3.68,0,0,1-.75.23,4.78,4.78,0,0,1-1,.09,4.46,4.46,0,0,1-1.34-.21,4.22,4.22,0,0,1-1.2-.6,3.21,3.21,0,0,1-.86-.94,2.26,2.26,0,0,1-.33-1.2A2.35,2.35,0,0,1,91.8,27a3.14,3.14,0,0,1,.81-.94,4.28,4.28,0,0,1,1.18-.63,4.59,4.59,0,0,1,1.45-.23,4.44,4.44,0,0,1,1.25.17,3.51,3.51,0,0,1,1.06.53l0,.18a1.16,1.16,0,0,0,0,.18,2.42,2.42,0,0,0-1-.73,4,4,0,0,0-1.36-.21h-.3l-.16,0a3.15,3.15,0,0,0-1.18.38,3.06,3.06,0,0,0-.89.74,2.6,2.6,0,0,0-.51,1,2.27,2.27,0,0,0,0,1.13,2.77,2.77,0,0,0,.4.9,3.69,3.69,0,0,0,.76.77,3.73,3.73,0,0,0,1,.53A3.46,3.46,0,0,0,95.39,31Z" transform="translate(-3.97 -1.57)"/><path class="cls-1" d="M99.25,28.23a2.5,2.5,0,0,1,.27-1.15,2.94,2.94,0,0,1,.75-.94,3.73,3.73,0,0,1,1.13-.63,4.42,4.42,0,0,1,1.43-.23,4.33,4.33,0,0,1,1.43.23,3.73,3.73,0,0,1,1.13.63,2.94,2.94,0,0,1,.75.94,2.39,2.39,0,0,1,.28,1.15,2.35,2.35,0,0,1-.28,1.14,2.8,2.8,0,0,1-.75.93,3.35,3.35,0,0,1-1.13.63,4.09,4.09,0,0,1-1.43.23,4.42,4.42,0,0,1-1.43-.22,3.53,3.53,0,0,1-1.13-.63,2.8,2.8,0,0,1-.75-.93A2.53,2.53,0,0,1,99.25,28.23Zm.49.43a2.72,2.72,0,0,0,.43,1,3,3,0,0,0,.74.76,3.56,3.56,0,0,0,1,.5,3.38,3.38,0,0,0,1.1.18h.24l.23,0a3.12,3.12,0,0,0,1.16-.39,2.87,2.87,0,0,0,.84-.74,2.59,2.59,0,0,0,.47-1,2.69,2.69,0,0,0,0-1.13,2.58,2.58,0,0,0-.42-1,3,3,0,0,0-.74-.76,3.3,3.3,0,0,0-1-.5,3.38,3.38,0,0,0-1.1-.18h-.24l-.24,0a3.06,3.06,0,0,0-1.15.38,2.79,2.79,0,0,0-.85.74,2.66,2.66,0,0,0-.47,1A2.69,2.69,0,0,0,99.74,28.66Zm2.68-.43a.51.51,0,0,0,.19-.15.36.36,0,0,1,.2-.15h0a1,1,0,0,1,.18.17.54.54,0,0,0,.21.13s0,0,0,0a.64.64,0,0,0-.22.14,1,1,0,0,1-.18.17s0,0,0,0a.77.77,0,0,0-.16-.19,1,1,0,0,0-.23-.12S102.39,28.24,102.42,28.23Z" transform="translate(-3.97 -1.57)"/><path class="cls-1" d="M108,25.35h.27a4.28,4.28,0,0,0,.31,1.3,4,4,0,0,0,.58,1,4.48,4.48,0,0,0,.77.74c.27.21.56.42.84.62s.64.45.94.69a3.8,3.8,0,0,1,.79.86V25.35h.11v5.82h-.12a2.65,2.65,0,0,0-.34-.62,4.41,4.41,0,0,0-.46-.51,5.85,5.85,0,0,0-.54-.45c-.19-.15-.39-.29-.59-.43s-.49-.36-.74-.54a5.17,5.17,0,0,1-.7-.62,4.06,4.06,0,0,1-.59-.76,3.69,3.69,0,0,1-.42-1v4.91H108Z" transform="translate(-3.97 -1.57)"/><path class="cls-1" d="M114,25.35h5.38v.09h-2.53v5.72h-.33V25.44H114Z" transform="translate(-3.97 -1.57)"/><path class="cls-1" d="M120.73,31.16V25.35h.32v5.81Z" transform="translate(-3.97 -1.57)"/><path class="cls-1" d="M126.17,25.26a5.11,5.11,0,0,1,1.31.16,3.64,3.64,0,0,1,1.14.5l-.25.25a2.7,2.7,0,0,0-.47-.38,3,3,0,0,0-.5-.26,3.28,3.28,0,0,0-.56-.14,4.61,4.61,0,0,0-.68-.05,3.46,3.46,0,0,0-1.27.22,3.09,3.09,0,0,0-1,.59,2.74,2.74,0,0,0-.62.86,2.6,2.6,0,0,0-.22,1,2.64,2.64,0,0,0,.24,1.08,3,3,0,0,0,.67,1,3.11,3.11,0,0,0,1,.69,3.32,3.32,0,0,0,1.35.27A3,3,0,0,0,127,31a2.88,2.88,0,0,0,.67-.19,1.63,1.63,0,0,0,.53-.32.62.62,0,0,0,.22-.47V28.51h-1.56v-.1h1.89v2.06a3.91,3.91,0,0,1-1.12.5,4.45,4.45,0,0,1-1.26.17,4.59,4.59,0,0,1-1.45-.23,3.75,3.75,0,0,1-1.19-.63,3.11,3.11,0,0,1-.79-1,2.38,2.38,0,0,1-.29-1.16,2.24,2.24,0,0,1,.28-1.09,3.21,3.21,0,0,1,.76-.93,3.83,3.83,0,0,1,2.49-.89Z" transform="translate(-3.97 -1.57)"/><path class="cls-1" d="M130.19,28.23a2.5,2.5,0,0,1,.27-1.15,2.94,2.94,0,0,1,.75-.94,3.73,3.73,0,0,1,1.13-.63,4.42,4.42,0,0,1,1.43-.23,4.38,4.38,0,0,1,1.43.23,3.85,3.85,0,0,1,1.13.63,2.94,2.94,0,0,1,.75.94,2.5,2.5,0,0,1,.28,1.15,2.46,2.46,0,0,1-.28,1.14,2.8,2.8,0,0,1-.75.93,3.45,3.45,0,0,1-1.13.63,4.13,4.13,0,0,1-1.43.23,4.42,4.42,0,0,1-1.43-.22,3.53,3.53,0,0,1-1.13-.63,2.8,2.8,0,0,1-.75-.93A2.53,2.53,0,0,1,130.19,28.23Zm.49.43a2.72,2.72,0,0,0,.43,1,3,3,0,0,0,.74.76,3.65,3.65,0,0,0,1,.5,3.49,3.49,0,0,0,1.11.18h.24l.23,0a3.12,3.12,0,0,0,1.16-.39,2.87,2.87,0,0,0,.84-.74,2.59,2.59,0,0,0,.47-1,2.69,2.69,0,0,0,0-1.13,2.58,2.58,0,0,0-.42-1,3,3,0,0,0-.74-.76,3.3,3.3,0,0,0-1-.5,3.38,3.38,0,0,0-1.1-.18h-.24l-.24,0a3.06,3.06,0,0,0-1.15.38,2.79,2.79,0,0,0-.85.74,2.66,2.66,0,0,0-.47,1A2.69,2.69,0,0,0,130.68,28.66Zm2.68-.43a.51.51,0,0,0,.19-.15.36.36,0,0,1,.2-.15h.05a1,1,0,0,1,.18.17.54.54,0,0,0,.21.13s0,0,0,0a.64.64,0,0,0-.22.14,1,1,0,0,1-.18.17s0,0,0,0a.77.77,0,0,0-.16-.19,1,1,0,0,0-.23-.12S133.33,28.24,133.36,28.23Z" transform="translate(-3.97 -1.57)"/><path class="cls-2" d="M50.48,17.77v.45a17.35,17.35,0,0,0-6.89,0v-.45c1.48,0,1.93-.69,1.35-2.09l-.16-.37h0a6.72,6.72,0,0,1-2.37-.77c-1.69-.77-3.62-1.62-5.25-.59l-.66,1.73c-.54,1.4,0,2.1,1.15,2.09v.45a11.29,11.29,0,0,0-4.21,0v-.45c1.14,0,2-.69,2.51-2.09L41.3,1.57h.77l6.06,14.11C48.72,17.08,49.5,17.77,50.48,17.77Zm-5.92-3-4-9.57-3.09,8c1.73-.71,3.64.13,5.2.83A8.46,8.46,0,0,0,44.56,14.78Z" transform="translate(-3.97 -1.57)"/><path class="cls-2" d="M63.38,17.81v.4a11.94,11.94,0,0,0-6,0v-.4a2.1,2.1,0,0,0,.46-.08l.08,0a1.23,1.23,0,0,0,.4-.23,1.7,1.7,0,0,0,.53-.9l0-.11a4.14,4.14,0,0,0,.09-1l.06-5.5a2.74,2.74,0,0,0-.62-1.8,2.11,2.11,0,0,0-3.24,0A2.72,2.72,0,0,0,54.56,10v5.4a1,1,0,0,0,0,.18,3.81,3.81,0,0,0,.09.87.29.29,0,0,0,0,.09,1.52,1.52,0,0,0,1.47,1.29s0,.4,0,.4a12.23,12.23,0,0,0-6,0V17.8a1.57,1.57,0,0,0,.45-.08l.09,0a1.23,1.23,0,0,0,.4-.23,1.93,1.93,0,0,0,.53-.93s0-.05,0-.08a4.74,4.74,0,0,0,.09-1l0-6c0-1.32.22-2-1.53-2V7.32s2.45-1.46,3.65-.64a2,2,0,0,1,.66,1.54A4.48,4.48,0,0,1,58,6.44a3.67,3.67,0,0,1,2.8,1,3.94,3.94,0,0,1,1,2.92l0,5.12C61.8,17,62.33,17.74,63.38,17.81Z" transform="translate(-3.97 -1.57)"/><path class="cls-2" d="M94.64,17.8v.4a11.91,11.91,0,0,0-6,0v-.4a2.11,2.11,0,0,0,.45-.09l.09,0a1.41,1.41,0,0,0,.39-.24,2.6,2.6,0,0,0,.66-2V10c0-.13,0-.26,0-.39a2.48,2.48,0,0,0-1.2-1.87,1.73,1.73,0,0,0-2.27.47,2.58,2.58,0,0,0-.57,1.6c0,.71,0,1.19,0,1.91,0,1.21,0,2.58,0,3.79q0,2.25,1.59,2.34v.4a11.94,11.94,0,0,0-6,0v-.4a1.57,1.57,0,0,0,.45-.08l.1,0a1.58,1.58,0,0,0,.39-.24,2.64,2.64,0,0,0,.66-2l0-5.47c0-1.28-.92-3.06-2.21-2.55a4.7,4.7,0,0,0-1.5,1.13,12.82,12.82,0,0,0-2.06,3.25c-.57,1.17-1.05,2.39-1.6,3.6a12.26,12.26,0,0,1-.94,1.79l-.19.27a2.6,2.6,0,0,1-.5.55,2.19,2.19,0,0,1-.64.34,2.44,2.44,0,0,1-.69.15l0,.05h0c-1.34,0-2.07-.58-2.26-1.53v0h0a2.33,2.33,0,0,1-.07-.25,4.23,4.23,0,0,1-1.51,1.32,4.39,4.39,0,0,1-2.24.51,3.83,3.83,0,0,1-2.46-.91,3,3,0,0,1-1-2.32c0-1.58.88-2.67,2.63-3.27,2.93-1,4.38-1.83,4.36-3.13a1.89,1.89,0,0,0-1.21-1.84A2.36,2.36,0,0,0,67,7.61a3,3,0,0,0-.75,2.07,3.29,3.29,0,0,0,.53,1.85c-1.74.08-2.7-.84-2.7-1.94A2.33,2.33,0,0,1,64.76,8a3.61,3.61,0,0,1,.59-.52,6.45,6.45,0,0,1,5.15-.66,3.44,3.44,0,0,1,2.57,2.22,1.24,1.24,0,0,1,.06.43l.05,7.06c0,.1,0,.22,0,.33.15,1.46,1.2.46,1.51,0a13,13,0,0,0,.91-1.69c.55-1.19,1-2.41,1.63-3.61a13.64,13.64,0,0,1,2.19-3.37c.23-.24,1.51-1.77,3.12-1.77a3.52,3.52,0,0,1,2.68,1,3,3,0,0,1,.66,1c.08-.13.4-.52.46-.59a5.33,5.33,0,0,1,.4-.42l.16-.13a3.88,3.88,0,0,1,2.47-.84,3.56,3.56,0,0,1,2.69,1,4.14,4.14,0,0,1,1,2.91v3.16c0,.07,0,2,0,2Q93.07,17.71,94.64,17.8Zm-24-1.91s0-2.16,0-4.75A24.51,24.51,0,0,1,68,12.41a2.52,2.52,0,0,0-1.24,1.14,3.31,3.31,0,0,0-.39,1.68,3.17,3.17,0,0,0,.5,1.65,1.69,1.69,0,0,0,1.42.7C69.48,17.64,70.66,15.89,70.66,15.89ZM81,17.8v.4a11.89,11.89,0,0,0-5.93,0v-.4a1.89,1.89,0,0,0,.45-.09l.09,0a1.49,1.49,0,0,0,.39-.23s0,0,0,0a1.73,1.73,0,0,0,.51-.9.61.61,0,0,1,0-.13,3.92,3.92,0,0,0,.09-.8V15.2a31,31,0,0,1,1.34-3,14.36,14.36,0,0,1,1.42-2.51v5.84C79.46,17,80,17.73,81,17.8ZM75.15,7.49V7.36a6.84,6.84,0,0,1,2.54-.88c.91-.06,1.54,0,1.76,1a11.74,11.74,0,0,0-1.4,1.73,23.71,23.71,0,0,0-1.36,2.58V9.46C76.69,8.15,76.89,7.49,75.15,7.49Z" transform="translate(-3.97 -1.57)"/><path class="cls-2" d="M105.78,18.12a3,3,0,0,1-1.39.45c-1.47,0-2.23-.68-2.32-1.8a4.4,4.4,0,0,1-3.76,1.83,3.78,3.78,0,0,1-2.45-.91,2.93,2.93,0,0,1-1-2.32q0-2.37,2.64-3.27c2.92-1,4.38-1.84,4.35-3.13a1.89,1.89,0,0,0-1.21-1.84,2.36,2.36,0,0,0-2.41.48,3,3,0,0,0-.74,2.07,3.21,3.21,0,0,0,.53,1.85c-1.74.08-2.71-.84-2.71-1.94A2.33,2.33,0,0,1,96,8a3.3,3.3,0,0,1,.6-.52,6.43,6.43,0,0,1,5.14-.66,3.4,3.4,0,0,1,2.57,2.22,1.25,1.25,0,0,1,.07.43l0,7.06c0,.7-.06,2,1.33,1.22Zm-3.86-7a25.47,25.47,0,0,1-2.69,1.27A2.56,2.56,0,0,0,98,13.55a3.53,3.53,0,0,0-.39,1.68,3.27,3.27,0,0,0,.5,1.65,1.69,1.69,0,0,0,1.42.7c1.22.06,2.41-1.69,2.41-1.69S101.92,13.73,101.92,11.14Z" transform="translate(-3.97 -1.57)"/><path class="cls-2" d="M117.58,6.74v.38c-1.09,0-2,.83-2.64,2.39,0,0-3.45,8.08-3.84,8.92l-.26.58c-1.1,2.34-2.31,4.53-3.18,5a2.45,2.45,0,0,1-1.62.35,2,2,0,0,1-1.49-2.66,2.62,2.62,0,0,0,1.75.79c1.27-.09,2.83-2.09,4.22-4.55L107,9.52c-.65-1.6-1.47-2.4-2.43-2.4V6.74a17.15,17.15,0,0,0,5.73,0v.38q-1.33,0-.36,2.4l2.13,5.17,2.29-5.26c.66-1.53.42-2.3-.73-2.31V6.74A11.65,11.65,0,0,0,117.58,6.74Z" transform="translate(-3.97 -1.57)"/><path class="cls-2" d="M127.93,18.12a3,3,0,0,1-1.39.45c-1.48,0-2.24-.68-2.33-1.8a4.23,4.23,0,0,1-1.51,1.32,4.39,4.39,0,0,1-2.24.51,3.83,3.83,0,0,1-2.46-.91,3,3,0,0,1-1-2.32c0-1.58.88-2.67,2.63-3.27,2.93-1,4.38-1.84,4.36-3.13a1.89,1.89,0,0,0-1.21-1.84,2.36,2.36,0,0,0-2.41.48,3,3,0,0,0-.75,2.07,3.29,3.29,0,0,0,.53,1.85c-1.74.08-2.7-.84-2.7-1.94A2.33,2.33,0,0,1,118.17,8a3.61,3.61,0,0,1,.59-.52,6.45,6.45,0,0,1,5.15-.66,3.44,3.44,0,0,1,2.57,2.22,1.24,1.24,0,0,1,.06.43l0,7.06c0,.7,0,2,1.33,1.22Zm-3.87-7a24.51,24.51,0,0,1-2.68,1.27,2.52,2.52,0,0,0-1.24,1.14,3.31,3.31,0,0,0-.39,1.68,3.17,3.17,0,0,0,.5,1.65,1.69,1.69,0,0,0,1.42.7c1.22.06,2.4-1.69,2.4-1.69S124.07,13.73,124.06,11.14Z" transform="translate(-3.97 -1.57)"/><path class="cls-2" d="M138,16.55a3.72,3.72,0,0,1-2,1.64,5.65,5.65,0,0,1-2.52.15c-1.13-.16-3.09-1.07-3.23-2.7,0-.49.14-2.29,2.58-2.25a3.12,3.12,0,0,0-1.1,2.12A2.16,2.16,0,0,0,133,17.57c.56.29,2.52.85,3.59-.47a1.86,1.86,0,0,0,0-2.33,2.71,2.71,0,0,0-1-.7,17.3,17.3,0,0,0-1.72-.64c-.66-.24-1.14-.43-1.45-.56a3.26,3.26,0,0,1-2-3.18,3.38,3.38,0,0,1,1-2.36,3.76,3.76,0,0,1,2.72-1,4.66,4.66,0,0,1,3.29,1.23A2,2,0,0,1,138,9c0,.95-.83,1.74-2.33,1.67A2.75,2.75,0,0,0,136.08,9a2.53,2.53,0,0,0-.65-1.78,1.62,1.62,0,0,0-.67-.39,2.47,2.47,0,0,0-2.16.52,1.65,1.65,0,0,0-.52,1.13,1.39,1.39,0,0,0,.41,1.09,7.22,7.22,0,0,0,2.06,1,12.51,12.51,0,0,1,2.2.91,3.27,3.27,0,0,1,1.68,3.14A4,4,0,0,1,138,16.55Z" transform="translate(-3.97 -1.57)"/><path class="cls-2" d="M131.41,4.28,128.58,7.6h-1.47l2-3.32Z" transform="translate(-3.97 -1.57)"/><circle class="cls-3" cx="13.04" cy="16.4" r="8.88"/><path class="cls-4" d="M17.19,4.37c8.87,8.37,2.15,23.76-11.84,20.12,2.06-11,20.3-14.28,23.39,0C17.23,28.7,7.57,13.67,16.39,5l.66-.64,0,0Z" transform="translate(-3.97 -1.57)"/></svg>