<svg id="Capa_1" data-name="Capa 1" xmlns="http://www.w3.org/2000/svg" xmlns:xlink="http://www.w3.org/1999/xlink" viewBox="0 0 129.11 93.98"><defs><style>.cls-1,.cls-3,.cls-4{fill:none;stroke-miterlimit:10;}.cls-1{stroke:#1d1d1b;}.cls-2{fill:#1d1d1b;}.cls-3,.cls-4{stroke-width:5px;}.cls-3{stroke:url(#Degradado_sin_nombre_160);}.cls-4{stroke:url(#Degradado_sin_nombre_613);}</style><linearGradient id="Degradado_sin_nombre_160" x1="40.03" y1="33.43" x2="84.07" y2="33.43" gradientUnits="userSpaceOnUse"><stop offset="0" stop-color="#e4032c"/><stop offset="0.02" stop-color="#e4082a"/><stop offset="0.05" stop-color="#e61625"/><stop offset="0.08" stop-color="#e72d1c"/><stop offset="0.11" stop-color="#ea4d11"/><stop offset="0.13" stop-color="#ed6f04"/><stop offset="0.27" stop-color="#f7d400"/><stop offset="0.41" stop-color="#00a03b"/><stop offset="0.55" stop-color="#00b2e6"/><stop offset="0.71" stop-color="#3161ab"/><stop offset="0.72" stop-color="#415ba7"/><stop offset="0.75" stop-color="#6a4d9d"/><stop offset="0.78" stop-color="#8a4195"/><stop offset="0.81" stop-color="#a1398f"/><stop offset="0.84" stop-color="#af348b"/><stop offset="0.86" stop-color="#b4328a"/><stop offset="0.87" stop-color="#a23586"/><stop offset="0.9" stop-color="#8a3981"/><stop offset="0.93" stop-color="#793c7d"/><stop offset="0.96" stop-color="#6f3d7b"/><stop offset="1" stop-color="#6c3e7a"/></linearGradient><linearGradient id="Degradado_sin_nombre_613" x1="40.27" y1="30.54" x2="97.48" y2="30.54" gradientUnits="userSpaceOnUse"><stop offset="0" stop-color="#9e5ca1"/><stop offset="0.35" stop-color="#a3195b"/><stop offset="0.67" stop-color="#662483"/><stop offset="1" stop-color="#29235c"/></linearGradient></defs><path class="cls-1" d="M8,97.29v-7.1h.39v7h4v.11Zm4.71-7.1,3.16,7.1H15.4l-1.73-3.88-.13,0-.34.08-.32.11-.16.06a3.32,3.32,0,0,0-.7.38,3.75,3.75,0,0,0-.57.47,3.87,3.87,0,0,0-.45.55c-.13.2-.25.41-.36.62l-.21.54h-.15Zm-1.95,5.34a2.77,2.77,0,0,1,.31-.59,3.06,3.06,0,0,1,.42-.53A3.12,3.12,0,0,1,12,94a3,3,0,0,1,.66-.35l.16-.06.15-.06.26-.07.25-.06.16,0-1.1-2.46Z" transform="translate(-6.72 -4.6)"/><path class="cls-1" d="M22.57,90.2H23v6.85l.48-.09a4.1,4.1,0,0,1,.49,0,5.06,5.06,0,0,1,1.17.13l1.16.31c.4.1.81.21,1.24.3a5.89,5.89,0,0,0,1.35.14,4.6,4.6,0,0,0,1.9-.36,4.08,4.08,0,0,0,1.43-1.06,2.12,2.12,0,0,1-.58.72,3.82,3.82,0,0,1-.85.53,4.5,4.5,0,0,1-1,.32,5.47,5.47,0,0,1-1.07.11,7.88,7.88,0,0,1-1.2-.09,11.78,11.78,0,0,1-1.18-.25l-.65-.19L25,97.36a5.32,5.32,0,0,0-.67-.14,4,4,0,0,0-.69-.06,4.58,4.58,0,0,0-.53,0l-.52.1Zm3.34,0v4a1.94,1.94,0,0,0,.23.9,2.4,2.4,0,0,0,.61.75,3.35,3.35,0,0,0,.91.51,3.19,3.19,0,0,0,1.13.19,3.42,3.42,0,0,0,1.12-.18,3,3,0,0,0,.92-.48,2.39,2.39,0,0,0,.62-.73,1.87,1.87,0,0,0,.22-.9V90.2h.13v4.08a2,2,0,0,1-.24,1,2.59,2.59,0,0,1-.68.8,3.82,3.82,0,0,1-1,.54,3.82,3.82,0,0,1-2.44,0,3.53,3.53,0,0,1-1-.54,2.59,2.59,0,0,1-.68-.8,1.92,1.92,0,0,1-.25-1V90.2Z" transform="translate(-6.72 -4.6)"/><path class="cls-1" d="M34.42,97.18h6v.11H33.84l6.62-7H34.37v-.1H41Z" transform="translate(-6.72 -4.6)"/><path class="cls-1" d="M47.8,90.15h3.76v.1H48.2V93.9h2.22V94H48.2V97.2h3.36v.09H47.8Z" transform="translate(-6.72 -4.6)"/><path class="cls-1" d="M53.12,97l.55-.32a4,4,0,0,0,1.93.49,3.14,3.14,0,0,0,.83-.11,1.86,1.86,0,0,0,.67-.3,1.41,1.41,0,0,0,.61-1.15,1.13,1.13,0,0,0-.31-.81,2.83,2.83,0,0,0-.77-.56,9.35,9.35,0,0,0-1-.45,7.12,7.12,0,0,1-1-.48,3.06,3.06,0,0,1-.76-.66,1.51,1.51,0,0,1-.31-1,1.34,1.34,0,0,1,.17-.68,1.54,1.54,0,0,1,.48-.47,2.33,2.33,0,0,1,.7-.28,3.73,3.73,0,0,1,.84-.09,3.66,3.66,0,0,1,.81.09,2.82,2.82,0,0,1,.72.27l-.13.37a1.84,1.84,0,0,0-.73-.5,2.85,2.85,0,0,0-.94-.15,2.07,2.07,0,0,0-.66.1,1.62,1.62,0,0,0-.56.27,1.47,1.47,0,0,0-.37.42,1.1,1.1,0,0,0-.14.53,1.16,1.16,0,0,0,.31.84,3,3,0,0,0,.76.56,10.34,10.34,0,0,0,1,.45,5.66,5.66,0,0,1,1,.47,2.75,2.75,0,0,1,.77.66,1.59,1.59,0,0,1,.31,1,1.55,1.55,0,0,1-.17.71,1.61,1.61,0,0,1-.47.54,2.24,2.24,0,0,1-.71.35,3.13,3.13,0,0,1-.89.13,10.56,10.56,0,0,1-1.27-.08Q53.77,97.12,53.12,97Z" transform="translate(-6.72 -4.6)"/><path class="cls-1" d="M59,90.15h6.62v.1H62.5v7h-.4v-7H59Z" transform="translate(-6.72 -4.6)"/><path class="cls-1" d="M65.6,97.29l2.81-7.14,3.18,7.14h-.42l-1.75-3.9a6.26,6.26,0,0,0-1.08.34,4,4,0,0,0-.83.49,3.52,3.52,0,0,0-.63.65,7.32,7.32,0,0,0-.51.83h0l-.62,1.59Zm.84-1.77a3.78,3.78,0,0,1,1.09-1.45,4.19,4.19,0,0,1,1.86-.78l-1.11-2.48ZM68.61,89h.25l-.5.88h-.07Z" transform="translate(-6.72 -4.6)"/><path class="cls-1" d="M82.89,97.12a4.6,4.6,0,0,0,1.52-.22,5.06,5.06,0,0,0,1.06-.47,4.67,4.67,0,0,0,.83-.69,2.2,2.2,0,0,1-.33.4,5.62,5.62,0,0,1-.46.37,3.58,3.58,0,0,1-.68.36,4.44,4.44,0,0,1-.93.28,5.32,5.32,0,0,1-1.18.11A5.17,5.17,0,0,1,81.07,97a5,5,0,0,1-1.48-.74,3.87,3.87,0,0,1-1.06-1.15,2.78,2.78,0,0,1-.41-1.47,3,3,0,0,1,.36-1.43,4,4,0,0,1,1-1.15,5,5,0,0,1,1.46-.78A5.5,5.5,0,0,1,82.72,90a5.72,5.72,0,0,1,1.53.2,4.37,4.37,0,0,1,1.31.66c0,.07,0,.14,0,.22s0,.14,0,.21a3.26,3.26,0,0,0-1.29-.89,5,5,0,0,0-1.68-.26h-.37l-.2,0a4.15,4.15,0,0,0-1.44.48,3.62,3.62,0,0,0-1.1.9,3.55,3.55,0,0,0-.63,1.22,2.84,2.84,0,0,0,0,1.39,3.05,3.05,0,0,0,.5,1.11,3.9,3.9,0,0,0,.92.94,4.52,4.52,0,0,0,1.25.66A4.3,4.3,0,0,0,82.89,97.12Z" transform="translate(-6.72 -4.6)"/><path class="cls-1" d="M87.65,93.68A3.18,3.18,0,0,1,88,92.26a3.45,3.45,0,0,1,.91-1.14,4.42,4.42,0,0,1,1.4-.78,5.67,5.67,0,0,1,3.52,0,4.48,4.48,0,0,1,1.39.78,3.48,3.48,0,0,1,.92,1.14,3.19,3.19,0,0,1,.34,1.42,3.12,3.12,0,0,1-.34,1.41,3.63,3.63,0,0,1-.92,1.15,4.67,4.67,0,0,1-1.39.77,5.67,5.67,0,0,1-3.52,0,4.21,4.21,0,0,1-1.4-.77A3.39,3.39,0,0,1,88,95.09,3.11,3.11,0,0,1,87.65,93.68Zm.6.53a3.56,3.56,0,0,0,.52,1.2,3.83,3.83,0,0,0,.91.93,4.45,4.45,0,0,0,2.55.84h.29l.29,0a3.69,3.69,0,0,0,2.46-1.39,3.07,3.07,0,0,0,.57-1.21A3.34,3.34,0,0,0,95.33,92a4.05,4.05,0,0,0-.91-.94,4.35,4.35,0,0,0-2.55-.83h-.29l-.3,0a4,4,0,0,0-1.42.47,3.39,3.39,0,0,0-1,.91,3.07,3.07,0,0,0-.57,1.21A3,3,0,0,0,88.25,94.21Zm3.29-.52a.57.57,0,0,0,.23-.19.56.56,0,0,1,.25-.18s0,0,.06,0a1.22,1.22,0,0,1,.23.2.61.61,0,0,0,.25.17s0,0,0,0a.69.69,0,0,0-.26.18,1.65,1.65,0,0,1-.23.2s0,0,0,0a1.16,1.16,0,0,0-.19-.23,1.54,1.54,0,0,0-.29-.15S91.5,93.7,91.54,93.69Z" transform="translate(-6.72 -4.6)"/><path class="cls-1" d="M98.4,90.15h.34a5.22,5.22,0,0,0,.38,1.6,4.75,4.75,0,0,0,.71,1.18,5.38,5.38,0,0,0,.94.91c.34.27.69.52,1,.76s.78.56,1.16.86a4.57,4.57,0,0,1,1,1.05V90.15h.14V97.3h-.15a3.29,3.29,0,0,0-.42-.76,3.72,3.72,0,0,0-.56-.63,7.35,7.35,0,0,0-.67-.56c-.23-.17-.47-.35-.72-.52l-.91-.67a5.64,5.64,0,0,1-.86-.76,4.91,4.91,0,0,1-.73-.94,4.46,4.46,0,0,1-.52-1.21v6H98.4Z" transform="translate(-6.72 -4.6)"/><path class="cls-1" d="M105.8,90.15h6.62v.1h-3.11v7h-.4v-7H105.8Z" transform="translate(-6.72 -4.6)"/><path class="cls-1" d="M114.05,97.29V90.15h.4v7.14Z" transform="translate(-6.72 -4.6)"/><path class="cls-1" d="M120.75,90a6.94,6.94,0,0,1,1.6.19,4.7,4.7,0,0,1,1.41.62l-.31.31a3.44,3.44,0,0,0-.58-.46,3,3,0,0,0-.61-.32,3.78,3.78,0,0,0-.7-.18,5.08,5.08,0,0,0-.82-.06,4.35,4.35,0,0,0-1.57.27,3.61,3.61,0,0,0-1.2.73,3.28,3.28,0,0,0-.77,1.05,3.19,3.19,0,0,0,0,2.59,3.64,3.64,0,0,0,.82,1.18A4.06,4.06,0,0,0,121,97.12a4.48,4.48,0,0,0,.77-.07,3.63,3.63,0,0,0,.83-.24,2.23,2.23,0,0,0,.65-.4.75.75,0,0,0,.27-.57V94h-1.91V93.9h2.31v2.54a4.87,4.87,0,0,1-1.37.62,6.16,6.16,0,0,1-1.55.2,5.55,5.55,0,0,1-1.79-.28,4.8,4.8,0,0,1-1.45-.78,3.65,3.65,0,0,1-1-1.17,2.94,2.94,0,0,1-.36-1.42,2.71,2.71,0,0,1,.35-1.34,3.93,3.93,0,0,1,.94-1.15A4.83,4.83,0,0,1,120.75,90Z" transform="translate(-6.72 -4.6)"/><path class="cls-1" d="M125.69,93.68a3.18,3.18,0,0,1,.33-1.42,3.48,3.48,0,0,1,.92-1.14,4.36,4.36,0,0,1,1.39-.78,5.67,5.67,0,0,1,3.52,0,4.36,4.36,0,0,1,1.39.78,3.48,3.48,0,0,1,.92,1.14,3.06,3.06,0,0,1,.34,1.42,3,3,0,0,1-.34,1.41,3.63,3.63,0,0,1-.92,1.15,4.55,4.55,0,0,1-1.39.77,5.67,5.67,0,0,1-3.52,0,4.16,4.16,0,0,1-1.39-.77,3.42,3.42,0,0,1-.92-1.15A3.11,3.11,0,0,1,125.69,93.68Zm.6.53a3.56,3.56,0,0,0,.52,1.2,4,4,0,0,0,.91.93,4.24,4.24,0,0,0,1.2.61,4.07,4.07,0,0,0,1.35.23h.29l.29,0a3.62,3.62,0,0,0,1.42-.48,3.54,3.54,0,0,0,1-.91,3.07,3.07,0,0,0,.57-1.21,3,3,0,0,0,0-1.39,3.06,3.06,0,0,0-.5-1.19,4.1,4.1,0,0,0-.92-.94,4.35,4.35,0,0,0-2.54-.83h-.29l-.31,0a3.85,3.85,0,0,0-1.41.47,3.42,3.42,0,0,0-1,.91,3.37,3.37,0,0,0-.57,1.21A3.26,3.26,0,0,0,126.29,94.21Zm3.29-.52a.69.69,0,0,0,.24-.19.47.47,0,0,1,.24-.18s.05,0,.07,0a1.11,1.11,0,0,1,.22.2.59.59,0,0,0,.26.17s0,0,0,0a.66.66,0,0,0-.27.18,1.5,1.5,0,0,1-.22.2s0,0-.06,0a.9.9,0,0,0-.19-.23,1.28,1.28,0,0,0-.29-.15S129.54,93.7,129.58,93.69Z" transform="translate(-6.72 -4.6)"/><path class="cls-2" d="M27.68,80.83v.55a21.38,21.38,0,0,0-8.48,0v-.55q2.73,0,1.66-2.58l-.19-.45h0a8.27,8.27,0,0,1-2.91-1c-2.09-.94-4.46-2-6.46-.73l-.82,2.13c-.66,1.72,0,2.58,1.42,2.58v.55a13.68,13.68,0,0,0-5.18,0v-.55c1.41,0,2.44-.86,3.08-2.58L16.38,60.9h.95l7.46,17.35C25.51,80,26.47,80.83,27.68,80.83Zm-7.29-3.68-5-11.77-3.79,9.87c2.13-.88,4.47.16,6.39,1A11.14,11.14,0,0,0,20.39,77.15Z" transform="translate(-6.72 -4.6)"/><path class="cls-2" d="M43.54,80.87v.49a14.69,14.69,0,0,0-7.35,0v-.49a2.52,2.52,0,0,0,.56-.1l.1,0a1.72,1.72,0,0,0,.49-.29A2.19,2.19,0,0,0,38,79.33l0-.13A5.48,5.48,0,0,0,38.14,78l.07-6.76A3.27,3.27,0,0,0,37.45,69a2.45,2.45,0,0,0-2-.93,2.49,2.49,0,0,0-1.95,1,3.35,3.35,0,0,0-.77,2.19v6.64c0,.08,0,.15,0,.23a5.57,5.57,0,0,0,.11,1.06l0,.11a1.86,1.86,0,0,0,1.8,1.59,4.1,4.1,0,0,1,0,.49,15,15,0,0,0-7.37,0v-.5a2.33,2.33,0,0,0,.56-.1l.11,0a1.66,1.66,0,0,0,.48-.29,2.19,2.19,0,0,0,.65-1.14s0-.06,0-.1A5.44,5.44,0,0,0,29.25,78l0-7.41c0-1.62.28-2.45-1.88-2.45V68s3-1.8,4.49-.79a2.42,2.42,0,0,1,.81,1.9,5.53,5.53,0,0,1,4.17-2.19,4.57,4.57,0,0,1,3.45,1.22,4.9,4.9,0,0,1,1.24,3.59l0,6.29C41.59,79.83,42.24,80.79,43.54,80.87Z" transform="translate(-6.72 -4.6)"/><path class="cls-2" d="M82,80.86v.49a14.69,14.69,0,0,0-7.35,0v-.49a2.42,2.42,0,0,0,.56-.11l.1,0a1.59,1.59,0,0,0,.49-.29A3.24,3.24,0,0,0,76.59,78V71.21a3.87,3.87,0,0,0,0-.48,3,3,0,0,0-1.46-2.3,2.13,2.13,0,0,0-2.8.58,3.17,3.17,0,0,0-.7,2c0,.87,0,1.47,0,2.35,0,1.49,0,3.18,0,4.66,0,1.84.66,2.8,2,2.88v.49a14.69,14.69,0,0,0-7.35,0v-.49a2.25,2.25,0,0,0,.54-.1l.12,0a1.59,1.59,0,0,0,.49-.29A3.23,3.23,0,0,0,68.25,78l.06-6.73c0-1.57-1.13-3.75-2.71-3.13a5.84,5.84,0,0,0-1.84,1.39,15.85,15.85,0,0,0-2.54,4c-.7,1.45-1.29,3-2,4.44a17.26,17.26,0,0,1-1.17,2.2,3.71,3.71,0,0,1-.23.32,3.3,3.3,0,0,1-.61.68,2.36,2.36,0,0,1-.8.42,3,3,0,0,1-.84.19l0,0h-.06c-1.65,0-2.54-.72-2.77-1.89v0h0c0-.11-.07-.2-.08-.31a5.25,5.25,0,0,1-1.85,1.63,5.59,5.59,0,0,1-2.77.63,4.75,4.75,0,0,1-3-1.12,3.65,3.65,0,0,1-1.19-2.86q0-2.91,3.24-4c3.6-1.27,5.39-2.26,5.36-3.85A2.33,2.33,0,0,0,51,67.74a2.87,2.87,0,0,0-3,.59,3.58,3.58,0,0,0-.92,2.54,4,4,0,0,0,.65,2.27c-2.14.11-3.33-1-3.33-2.38a2.89,2.89,0,0,1,.84-1.93A4.34,4.34,0,0,1,46,68.2a7.88,7.88,0,0,1,6.33-.81c1.4.39,2.86,1.31,3.16,2.72a1.59,1.59,0,0,1,.08.53l.06,8.68c0,.13,0,.27,0,.41.18,1.8,1.47.56,1.85,0a14.25,14.25,0,0,0,1.12-2.08c.68-1.45,1.29-3,2-4.43a16.63,16.63,0,0,1,2.69-4.14c.28-.3,1.86-2.18,3.84-2.18a4.37,4.37,0,0,1,3.3,1.23,3.6,3.6,0,0,1,.8,1.21,8.79,8.79,0,0,1,.57-.74,6,6,0,0,1,.49-.51c.07-.06.14-.1.2-.16a4.66,4.66,0,0,1,3-1,4.42,4.42,0,0,1,3.3,1.22A5.06,5.06,0,0,1,80,71.67v3.88c0,.09,0,2.43,0,2.43C80,79.82,80.68,80.78,82,80.86ZM52.49,78.51s0-2.66,0-5.84a31.86,31.86,0,0,1-3.31,1.56,3.17,3.17,0,0,0-1.52,1.41,4.2,4.2,0,0,0-.47,2.06,4,4,0,0,0,.61,2,2.05,2.05,0,0,0,1.75.86C51,80.66,52.49,78.51,52.49,78.51Zm12.76,2.34v.5a14.58,14.58,0,0,0-7.29,0v-.49a2.32,2.32,0,0,0,.56-.11l.11,0a1.78,1.78,0,0,0,.48-.28l0,0a2.11,2.11,0,0,0,.62-1.1l0-.16a4.45,4.45,0,0,0,.11-1v-.51a38.37,38.37,0,0,1,1.66-3.75,18,18,0,0,1,1.73-3.08V78C63.31,79.83,64,80.78,65.25,80.85ZM58,68.18V68a8.29,8.29,0,0,1,3.12-1.08c1.13-.08,1.9,0,2.17,1.29a14.76,14.76,0,0,0-1.73,2.13,29.9,29.9,0,0,0-1.67,3.17V70.6C59.9,69,60.15,68.18,58,68.18Z" transform="translate(-6.72 -4.6)"/><path class="cls-2" d="M95.67,81.25a3.68,3.68,0,0,1-1.7.56c-1.82,0-2.75-.83-2.86-2.22a5.38,5.38,0,0,1-1.86,1.63,5.52,5.52,0,0,1-2.76.63,4.76,4.76,0,0,1-3-1.12,3.65,3.65,0,0,1-1.19-2.86q0-2.91,3.24-4c3.6-1.27,5.39-2.26,5.36-3.85a2.32,2.32,0,0,0-1.49-2.26,2.87,2.87,0,0,0-3,.59,3.58,3.58,0,0,0-.92,2.54,4,4,0,0,0,.65,2.27c-2.14.11-3.33-1-3.33-2.38a2.89,2.89,0,0,1,.84-1.93,4,4,0,0,1,.74-.63,7.86,7.86,0,0,1,6.32-.81c1.4.39,2.86,1.31,3.16,2.72a1.61,1.61,0,0,1,.08.54L94,79.32c0,.87-.06,2.49,1.64,1.5Zm-4.75-8.58a31.81,31.81,0,0,1-3.3,1.56,3.19,3.19,0,0,0-1.53,1.41,4.2,4.2,0,0,0-.47,2.06,4,4,0,0,0,.61,2,2.06,2.06,0,0,0,1.75.86c1.49.07,3-2.08,3-2.08S90.93,75.85,90.92,72.67Z" transform="translate(-6.72 -4.6)"/><path class="cls-2" d="M110.18,67.26v.47c-1.34,0-2.43,1-3.25,2.94,0,0-4.24,9.93-4.71,11-.11.24-.32.71-.33.7-1.34,2.88-2.83,5.58-3.9,6.15a3.06,3.06,0,0,1-2,.44,2.46,2.46,0,0,1-1.84-3.28,3.15,3.15,0,0,0,2.16,1c1.56-.11,3.48-2.56,5.18-5.59L97.21,70.67c-.81-2-1.81-2.94-3-2.94v-.47a21,21,0,0,0,7,0v.47c-1.09,0-1.23,1-.43,2.94L103.45,77l2.81-6.47q1.23-2.82-.89-2.83v-.47A14.32,14.32,0,0,0,110.18,67.26Z" transform="translate(-6.72 -4.6)"/><path class="cls-2" d="M122.91,81.25a3.77,3.77,0,0,1-1.71.56c-1.81,0-2.75-.83-2.86-2.22a5.38,5.38,0,0,1-1.86,1.63,5.52,5.52,0,0,1-2.76.63,4.78,4.78,0,0,1-3-1.12,3.65,3.65,0,0,1-1.18-2.86q0-2.91,3.23-4c3.61-1.27,5.39-2.26,5.36-3.85a2.32,2.32,0,0,0-1.49-2.26,2.87,2.87,0,0,0-3,.59,3.62,3.62,0,0,0-.91,2.54,4,4,0,0,0,.64,2.27c-2.13.11-3.32-1-3.32-2.38a2.89,2.89,0,0,1,.84-1.93,4,4,0,0,1,.73-.63,7.86,7.86,0,0,1,6.32-.81c1.4.39,2.86,1.31,3.16,2.72a1.61,1.61,0,0,1,.08.54l.07,8.67c0,.87-.07,2.49,1.63,1.5Zm-4.76-8.58a30.87,30.87,0,0,1-3.3,1.56,3.13,3.13,0,0,0-1.52,1.41,4.1,4.1,0,0,0-.48,2.06,4,4,0,0,0,.62,2,2,2,0,0,0,1.74.86c1.5.07,3-2.08,3-2.08S118.16,75.85,118.15,72.67Z" transform="translate(-6.72 -4.6)"/><path class="cls-2" d="M135.23,79.32a4.54,4.54,0,0,1-2.46,2,6.77,6.77,0,0,1-3.1.18c-1.39-.19-3.8-1.31-4-3.32-.06-.59.17-2.81,3.17-2.77A3.81,3.81,0,0,0,127.52,78a2.65,2.65,0,0,0,1.61,2.53c.69.36,3.1,1.05,4.42-.57a2.31,2.31,0,0,0,0-2.87,3.33,3.33,0,0,0-1.26-.85,21.76,21.76,0,0,0-2.11-.8c-.81-.29-1.41-.52-1.79-.68a4,4,0,0,1-2.47-3.91,4.15,4.15,0,0,1,1.2-2.91,4.59,4.59,0,0,1,3.34-1.16,5.72,5.72,0,0,1,4,1.51,2.54,2.54,0,0,1,.72,1.66c0,1.17-1,2.14-2.86,2.05a3.44,3.44,0,0,0,.56-2,3.08,3.08,0,0,0-.8-2.19,2.07,2.07,0,0,0-.82-.48,3.06,3.06,0,0,0-2.66.63,2.09,2.09,0,0,0-.64,1.4,1.7,1.7,0,0,0,.51,1.34A8.85,8.85,0,0,0,131.05,72a15.67,15.67,0,0,1,2.71,1.12A4,4,0,0,1,135.82,77,4.88,4.88,0,0,1,135.23,79.32Z" transform="translate(-6.72 -4.6)"/><path class="cls-2" d="M127.19,64.23l-3.48,4.09h-1.8l2.51-4.09Z" transform="translate(-6.72 -4.6)"/><circle class="cls-3" cx="62.05" cy="33.43" r="19.52"/><path class="cls-4" d="M69.16,8.11c19.51,18.42,4.74,52.25-26,44.26,4.52-24.31,44.62-31.4,51.43,0C69.27,61.63,48,28.57,67.42,9.39L68.86,8,69,7.92Z" transform="translate(-6.72 -4.6)"/></svg>